<svg xmlns="http://www.w3.org/2000/svg" viewBox="0 0 100 100" fill="none">
  <circle cx="50" cy="50" r="48" fill="#1E4636" stroke="#C5A880" stroke-width="2.5"/>
  <!-- Central Paw Pad with Leaf Accent -->
  <path d="M50 44C40 44 34 52 36 64C38 72 45 76 50 76C55 76 62 72 64 64C66 52 60 44 50 44Z" fill="#FAF8F5"/>
  <!-- Leaf vein curve inside main pad -->
  <path d="M50 48C50 58 48 68 50 74M50 58C46 54 42 56 40 58M50 63C54 60 58 61 60 63" stroke="#C5A880" stroke-width="2.2" stroke-linecap="round"/>
  <!-- Left Outer Toe -->
  <ellipse cx="28" cy="46" rx="6" ry="9" transform="rotate(-25 28 46)" fill="#FAF8F5"/>
  <!-- Left Inner Toe -->
  <ellipse cx="42" cy="34" rx="6.5" ry="10" transform="rotate(-10 42 34)" fill="#FAF8F5"/>
  <!-- Right Inner Toe -->
  <ellipse cx="58" cy="34" rx="6.5" ry="10" transform="rotate(10 58 34)" fill="#FAF8F5"/>
  <!-- Right Outer Toe -->
  <ellipse cx="72" cy="46" rx="6" ry="9" transform="rotate(25 72 46)" fill="#FAF8F5"/>
</svg>
